<svg width="138" height="138" viewBox="0 0 138 138" fill="none" xmlns="http://www.w3.org/2000/svg">
<mask id="mask0_29_143" style="mask-type:luminance" maskUnits="userSpaceOnUse" x="0" y="0" width="138" height="138">
<path d="M137.811 0H0.526428V137.285H137.811V0Z" fill="white"/>
</mask>
<g mask="url(#mask0_29_143)">
<path d="M56.9367 51.8975L112.041 79.5682L118.572 78.0243L57.1742 43.9407L19.8841 78.0243L23.4468 79.3307L56.5805 51.66L56.9367 51.8975Z" fill="#004E96"/>
</g>
<mask id="mask1_29_143" style="mask-type:luminance" maskUnits="userSpaceOnUse" x="0" y="0" width="138" height="138">
<path d="M137.811 0H0.526428V137.285H137.811V0Z" fill="white"/>
</mask>
<g mask="url(#mask1_29_143)">
<path d="M97.5519 114.008L56.699 109.139H56.5802L39.479 114.008L20.5964 111.989L56.5802 101.182L116.434 111.989L97.5519 114.008Z" fill="#004E96"/>
</g>
<mask id="mask2_29_143" style="mask-type:luminance" maskUnits="userSpaceOnUse" x="0" y="0" width="138" height="138">
<path d="M137.811 0H0.526428V137.285H137.811V0Z" fill="white"/>
</mask>
<g mask="url(#mask2_29_143)">
<path d="M56.6993 43.3468L20.2404 76.8367V64.6046L56.6993 23.5142V43.3468Z" fill="#B5D2EE"/>
</g>
<mask id="mask3_29_143" style="mask-type:luminance" maskUnits="userSpaceOnUse" x="0" y="0" width="138" height="138">
<path d="M137.811 0H0.526428V137.285H137.811V0Z" fill="white"/>
</mask>
<g mask="url(#mask3_29_143)">
<path d="M19.7652 83.6059L56.1053 53.085V73.1551L19.7652 95.0067V83.6059Z" fill="#B5D2EE"/>
</g>
<mask id="mask4_29_143" style="mask-type:luminance" maskUnits="userSpaceOnUse" x="0" y="0" width="138" height="138">
<path d="M137.811 0H0.526428V137.285H137.811V0Z" fill="white"/>
</mask>
<g mask="url(#mask4_29_143)">
<path d="M19.7652 99.0447L56.1053 80.7559V100.589L19.7652 111.514V99.0447Z" fill="#B5D2EE"/>
</g>
<mask id="mask5_29_143" style="mask-type:luminance" maskUnits="userSpaceOnUse" x="0" y="0" width="138" height="138">
<path d="M137.811 0H0.526428V137.285H137.811V0Z" fill="white"/>
</mask>
<g mask="url(#mask5_29_143)">
<path d="M118.572 76.8367L57.5305 43.228V23.2766L118.572 64.6046V76.8367Z" fill="white"/>
</g>
<mask id="mask6_29_143" style="mask-type:luminance" maskUnits="userSpaceOnUse" x="0" y="0" width="138" height="138">
<path d="M137.811 0H0.526428V137.285H137.811V0Z" fill="white"/>
</mask>
<g mask="url(#mask6_29_143)">
<path d="M117.979 95.0068L57.0555 73.0365V52.9663L117.979 83.606V95.0068Z" fill="white"/>
</g>
<mask id="mask7_29_143" style="mask-type:luminance" maskUnits="userSpaceOnUse" x="0" y="0" width="138" height="138">
<path d="M137.811 0H0.526428V137.285H137.811V0Z" fill="white"/>
</mask>
<g mask="url(#mask7_29_143)">
<path d="M117.979 111.514L57.0555 100.47V80.637L117.979 99.0445V111.514Z" fill="white"/>
</g>
<mask id="mask8_29_143" style="mask-type:luminance" maskUnits="userSpaceOnUse" x="0" y="0" width="138" height="138">
<path d="M137.811 0H0.526428V137.285H137.811V0Z" fill="white"/>
</mask>
<g mask="url(#mask8_29_143)">
<path d="M56.818 79.8057L112.634 96.5506L117.622 95.8381L56.5805 73.749L19.6466 95.8381L22.7343 96.5506L56.5805 79.6869L56.818 79.8057Z" fill="#004E96"/>
</g>
</svg>
